<svg xmlns="http://www.w3.org/2000/svg" width="641.049" height="608.964" viewBox="0 0 641.049 608.964">
  <g id="Illustration" transform="translate(0 0)">
    <path id="Path" d="M160.175,133.029c13.569,1,19.75,13.655,64.519-10.794S301.735-8.865,379.011.592s112.5,52.934,125.553,131.337-18.989,119.426-27.381,166.318S393.572,408.078,277.919,357.4,121.9,314.824,65.677,327.2-26.8,274.015,24.919,195.345,146.6,132.025,160.175,133.029Z" transform="matrix(0.788, -0.616, 0.616, 0.788, 0, 312.54)" fill="#cfcfcf"/>
    <path id="Path-2" data-name="Path" d="M241.25,182.772H432.175a40.646,40.646,0,0,1,39.593,31.87l96.471,430.724a33.189,33.189,0,0,1-5.884,27.243,32.739,32.739,0,0,1-24.5,13l-196.272,9.734a43.4,43.4,0,0,1-44.777-35.8L242.08,355.009l-4.071,1.171-10.471-57.719,4.191-1.055-15.275-85a25.273,25.273,0,0,1,5.478-20.683A24.922,24.922,0,0,1,241.25,182.772Z" transform="translate(-95.468 -103.835)" fill="#c3a480"/>
    <path id="Path-3" data-name="Path" d="M411.944,194.4h22.287a28.091,28.091,0,0,1,27.4,22.215l92.6,427.21a17.585,17.585,0,0,1-3.1,14.251,17.349,17.349,0,0,1-12.749,6.936L342.752,677.915a22.539,22.539,0,0,1-23.624-18.592L240.113,217.76a19.94,19.94,0,0,1,4.277-16.246,19.663,19.663,0,0,1,15.126-7.117h21.142a9.315,9.315,0,0,1,8.984,6.931h0a8.223,8.223,0,0,0,7.931,6.119H397.944a14.079,14.079,0,0,0,14-13.05Z" transform="translate(-100.372 -106.175)" fill="#cfcfcf"/>
    <ellipse id="Path-4" data-name="Path" cx="29.2" cy="29.393" rx="29.2" ry="29.393" transform="translate(541.946 149.813)" fill="#1c1b21"/>
    <path id="Path-5" data-name="Path" d="M729.143,695.259l5.554,23.962H721.208l-5.554-27.156Z" transform="translate(-126.496 -147.725)" fill="#ccb497"/>
    <path id="Path-6" data-name="Path" d="M647.143,696.064v22.364l-13.489,1.6V696.064Z" transform="translate(-109.562 -148.53)" fill="#ccb497"/>
    <path id="Path-7" data-name="Path" d="M821.762,451.255S820.175,485.6,818.588,488s-15.87,36.741-15.87,36.741l-7.141-22.364S806.686,484,805.1,473.62s-.587-23.161-.587-23.161Z" transform="translate(-215.147 -157.714)" fill="#ccb497"/>
    <ellipse id="Path-8" data-name="Path" cx="22.218" cy="22.364" rx="22.218" ry="22.364" transform="translate(539.168 165.746)" fill="#ccb497"/>
    <path id="Path-9" data-name="Path" d="M787.555,322.456s-.794,31.949,4.761,36.741-31.74.8-31.74.8,7.935-22.364,1.587-27.156S787.555,322.456,787.555,322.456Z" transform="translate(-207.919 -131.95)" fill="#ccb497"/>
    <path id="Path-10" data-name="Path" d="M745.214,365.43s4.761-8.786,11.109-7.987,26.979,2.4,27.772,3.994,3.174,7.189,4.761,8.786,13.489,3.994,14.283,13.578-28.565,67.891-28.565,67.891,3.967,13.578,3.174,16.773,3.967,12.78,3.174,16.773,11.9,27.955,5.554,59.105v50.319s21.424,87.061,15.076,93.45-27.772,2.4-31.74,0-20.631-123-20.631-123l-7.935-40.735-.793,89.457s1.587,75.08-3.968,77.476-26.979,3.195-28.566-1.6c-1.237-3.737-7.3-103.186-9.911-146.778a163.9,163.9,0,0,1,3.494-44.868c3.3-15.078,8.1-32.793,13.559-39.983,10.315-13.578,16.663-56.709,16.663-56.709l-13.489-24.76s7.935-7.987,12.7-7.987S745.214,365.43,745.214,365.43Z" transform="translate(-194.937 -138.982)" fill="#1c2126"/>
    <path id="Path-11" data-name="Path" d="M820.547,383.456l4.184,2.867s2.957,51.446.576,54.641-18.93,1.636-20.177-1.179S820.547,383.456,820.547,383.456Z" transform="translate(-217.106 -144.228)" fill="#1c2126"/>
    <path id="Path-12" data-name="Path" d="M716.752,440.894c2.323,16.219,4.358,30.657-7.518,43.72a223.278,223.278,0,0,1-40.1,34.962c-1.457,3.884-22.841,32.406-23.928,21.029s6.3-20.3,16.8-29.917,25.187-30.5,33.475-41.949,4.876-18.6,4.588-28.164S713.494,441.01,716.752,440.894Z" transform="translate(-184.072 -154.89)" fill="#ccb497"/>
    <path id="Path-13" data-name="Path" d="M721.668,781.255s-.793,8.946-3.174,11.343-8.728,5.591-7.935,14.377,5.951,9.185,5.951,9.185l-.4-2,2.38.8.4,1.2h22.218s.4-8.387-.4-12.38-.793-23.163-3.174-22.364-8.728,1.6-10.315,4.792S720.874,788.283,721.668,781.255Z" transform="translate(-197.576 -224.297)" fill="#1c2126"/>
    <path id="Path-14" data-name="Path" d="M821.491,781.255s.794,8.946,3.174,11.343,8.728,5.591,7.935,14.377-5.951,9.185-5.951,9.185l.4-2-2.38.8-.4,1.2H802.051s-.4-8.387.4-12.38.793-23.163,3.174-22.364,8.728,1.6,10.315,4.792S822.285,788.283,821.491,781.255Z" transform="translate(-216.464 -224.297)" fill="#1c2126"/>
    <path id="Path-15" data-name="Path" d="M732.057,378.456l-11.109,2.4s0,17.572-3.174,24.76-8.728,23.962-6.348,24.76,24.6,11.981,26.185,5.591S743.166,378.456,732.057,378.456Z" transform="translate(-197.65 -143.222)" fill="#1c2126"/>
    <ellipse id="Path-16" data-name="Path" cx="29.2" cy="29.393" rx="29.2" ry="29.393" transform="translate(573.579 111.113)" fill="#272727"/>
    <path id="Path-17" data-name="Path" d="M843.749,283.4a29.134,29.134,0,0,1-45.093-15.434,29.354,29.354,0,0,0,19.132,24.007,29.06,29.06,0,0,0,29.921-6.332,29.524,29.524,0,0,0,7.909-29.73A29.466,29.466,0,0,1,843.749,283.4Z" transform="translate(-215.783 -118.557)" fill="#4525f2"/>
    <ellipse id="Path-18" data-name="Path" cx="21.413" cy="21.555" rx="21.413" ry="21.555" transform="translate(557.519 162.55)" fill="#1c1b21"/>
    <ellipse id="Path-19" data-name="Path" cx="18.98" cy="14.941" rx="18.98" ry="14.941" transform="translate(541.946 161.081)" fill="#272727"/>
    <ellipse id="Path-20" data-name="Path" cx="3.602" cy="6.415" rx="3.602" ry="6.415" transform="translate(552.261 184.917)" fill="#ccb497"/>
  </g>
</svg>
